<svg width="23" height="20" viewBox="0 0 23 20" fill="none" xmlns="http://www.w3.org/2000/svg">
<g clip-path="url(#clip0_3857_77707)">
<path d="M12 7.50576C11.3406 7.50557 10.6959 7.70096 10.1476 8.06722C9.59926 8.43348 9.17187 8.95415 8.9195 9.56335C8.66713 10.1726 8.60112 10.8429 8.72981 11.4897C8.85851 12.1364 9.17613 12.7304 9.6425 13.1966L11.5483 15.0599C11.6695 15.1768 11.8313 15.2421 11.9996 15.2421C12.1679 15.2421 12.3297 15.1768 12.4508 15.0599L14.3675 13.1899C14.8322 12.7228 15.148 12.1284 15.2751 11.4819C15.4021 10.8354 15.3347 10.1657 15.0814 9.55745C14.8281 8.94921 14.4001 8.42969 13.8517 8.06452C13.3033 7.69935 12.6589 7.50491 12 7.50576ZM12 11.6658C11.8352 11.6658 11.6741 11.6169 11.537 11.5253C11.4 11.4337 11.2932 11.3036 11.2301 11.1513C11.167 10.9991 11.1505 10.8315 11.1827 10.6698C11.2148 10.5082 11.2942 10.3597 11.4107 10.2432C11.5273 10.1266 11.6758 10.0473 11.8374 10.0151C11.9991 9.98295 12.1666 9.99945 12.3189 10.0625C12.4712 10.1256 12.6013 10.2324 12.6929 10.3694C12.7845 10.5065 12.8333 10.6676 12.8333 10.8324C12.8333 11.0534 12.7455 11.2654 12.5893 11.4217C12.433 11.578 12.221 11.6658 12 11.6658ZM20.1667 4.65492L14.3333 0.718257C13.6452 0.250255 12.8322 0 12 0C11.1678 0 10.3548 0.250255 9.66667 0.718257L3.83333 4.65492C3.26846 5.03674 2.80591 5.55133 2.48627 6.15357C2.16663 6.75581 1.99965 7.42728 2 8.10909V15.8391C2.00132 16.9438 2.44074 18.0028 3.22185 18.7839C4.00297 19.565 5.062 20.0044 6.16667 20.0058H17.8333C18.938 20.0044 19.997 19.565 20.7782 18.7839C21.5593 18.0028 21.9987 16.9438 22 15.8391V8.10909C22.0003 7.42728 21.8334 6.75581 21.5137 6.15357C21.1941 5.55133 20.7315 5.03674 20.1667 4.65492Z" fill="white"/>
<path d="M14.7791 11.117H12.5569V8.89479C12.5569 8.74745 12.4983 8.60614 12.3941 8.50195C12.29 8.39777 12.1486 8.33923 12.0013 8.33923C11.854 8.33923 11.7127 8.39777 11.6085 8.50195C11.5043 8.60614 11.4457 8.74745 11.4457 8.89479V11.117H9.22352C9.07618 11.117 8.93487 11.1755 8.83069 11.2797C8.7265 11.3839 8.66797 11.5252 8.66797 11.6726C8.66797 11.8199 8.7265 11.9612 8.83069 12.0654C8.93487 12.1696 9.07618 12.2281 9.22352 12.2281H11.4457V14.4503C11.4457 14.5977 11.5043 14.739 11.6085 14.8432C11.7127 14.9474 11.854 15.0059 12.0013 15.0059C12.1486 15.0059 12.29 14.9474 12.3941 14.8432C12.4983 14.739 12.5569 14.5977 12.5569 14.4503V12.2281H14.7791C14.9264 12.2281 15.0677 12.1696 15.1719 12.0654C15.2761 11.9612 15.3346 11.8199 15.3346 11.6726C15.3346 11.5252 15.2761 11.3839 15.1719 11.2797C15.0677 11.1755 14.9264 11.117 14.7791 11.117Z" fill="#0A84FF"/>
</g>
<defs>
<clipPath id="clip0_3857_77707">
<rect width="23" height="20" fill="white"/>
</clipPath>
</defs>
</svg>
