<svg width="20" height="20" viewBox="0 0 20 20" fill="none" xmlns="http://www.w3.org/2000/svg">
<path d="M11.6667 5.83338C11.6667 6.16301 11.569 6.48525 11.3858 6.75933C11.2027 7.03341 10.9424 7.24703 10.6379 7.37318C10.3333 7.49932 9.9982 7.53233 9.6749 7.46802C9.3516 7.40371 9.05463 7.24498 8.82154 7.01189C8.58845 6.7788 8.42972 6.48183 8.36541 6.15853C8.3011 5.83523 8.33411 5.50012 8.46025 5.19557C8.5864 4.89103 8.80002 4.63073 9.0741 4.4476C9.34818 4.26446 9.67042 4.16671 10.0001 4.16671C10.4421 4.16671 10.866 4.34231 11.1786 4.65487C11.4911 4.96743 11.6667 5.39135 11.6667 5.83338ZM14.1317 10.1534L11.5834 12.6792C11.3766 12.8877 11.1306 13.0531 10.8596 13.1661C10.5885 13.279 10.2978 13.3371 10.0042 13.3371C9.7106 13.3371 9.41989 13.279 9.14885 13.1661C8.87781 13.0531 8.63182 12.8877 8.42505 12.6792L5.87838 10.1667C4.78485 9.03935 4.17244 7.531 4.17058 5.9604C4.16871 4.38981 4.77753 2.88001 5.86838 1.75004C6.40452 1.19612 7.04657 0.755656 7.75635 0.454846C8.46613 0.154037 9.22916 -0.000976562 10.0001 -0.000976562C10.7709 -0.000976562 11.534 0.154037 12.2438 0.454846C12.9535 0.755656 13.5956 1.19612 14.1317 1.75004C15.2209 2.87757 15.8297 4.38401 15.8297 5.95171C15.8297 7.51941 15.2209 9.02585 14.1317 10.1534V10.1534ZM13.3334 5.83338C13.3334 5.17411 13.1379 4.52964 12.7716 3.98148C12.4053 3.43331 11.8848 3.00607 11.2757 2.75378C10.6666 2.50149 9.99635 2.43548 9.34975 2.56409C8.70315 2.69271 8.1092 3.01018 7.64303 3.47636C7.17685 3.94253 6.85938 4.53647 6.73077 5.18308C6.60215 5.82968 6.66816 6.4999 6.92045 7.10899C7.17274 7.71808 7.59999 8.23867 8.14815 8.60494C8.69631 8.97121 9.34078 9.16671 10.0001 9.16671C10.8841 9.16671 11.732 8.81552 12.3571 8.1904C12.9822 7.56528 13.3334 6.71743 13.3334 5.83338V5.83338ZM17.2942 7.66671C16.9901 9.044 16.3079 10.3092 15.3242 11.32L12.7592 13.8642C12.3984 14.226 11.9698 14.5131 11.4979 14.7091C11.026 14.9051 10.5202 15.0063 10.0092 15.0067V15.0067C9.49854 15.0069 8.99282 14.9065 8.52097 14.7111C8.04911 14.5158 7.62036 14.2294 7.25922 13.8684L4.70672 11.3492C3.736 10.3527 3.05472 9.11084 2.73588 7.75671C2.19463 7.95511 1.69974 8.26225 1.28172 8.65921C0.87426 9.0466 0.550363 9.51325 0.32995 10.0305C0.109538 10.5477 -0.00273094 11.1045 5.04432e-05 11.6667V15.0625C0.00180177 15.9637 0.294877 16.84 0.835543 17.5609C1.37621 18.2818 2.13548 18.8086 3.00005 19.0625L5.39172 19.8125C5.79344 19.9376 6.21183 20.0008 6.63255 20C7.01421 19.9996 7.39404 19.9474 7.76172 19.845L12.5784 18.42C13.0074 18.3025 13.4602 18.3025 13.8892 18.42L15.8784 19.0867C16.3686 19.206 16.8796 19.2125 17.3727 19.1057C17.8658 18.9988 18.3282 18.7814 18.7251 18.4698C19.122 18.1582 19.4429 17.7606 19.6638 17.307C19.8846 16.8533 19.9996 16.3554 20.0001 15.8509V11.56C19.9972 10.7132 19.7368 9.8873 19.2536 9.19191C18.7703 8.49653 18.0869 7.96459 17.2942 7.66671V7.66671Z" fill="white"/>
</svg>
