<svg width="20" height="20" viewBox="0 0 20 20" fill="none" xmlns="http://www.w3.org/2000/svg">
<g clip-path="url(#clip0_3857_75605)">
<path d="M19.999 9.37272C19.8785 7.42274 19.1899 5.55065 18.0183 3.98725C16.8467 2.42384 15.2432 1.23747 13.4054 0.574388C11.5677 -0.0886934 9.57607 -0.199497 7.67612 0.255638C5.77617 0.710774 4.05094 1.71195 2.71311 3.13574C1.37529 4.55953 0.483355 6.34369 0.147272 8.26827C-0.18881 10.1929 0.0456512 12.1737 0.821751 13.9667C1.59785 15.7596 2.88166 17.2862 4.51491 18.3584C6.14816 19.4305 8.05945 20.0012 10.0132 20.0002H15.8323C16.9371 19.9991 17.9962 19.5598 18.7774 18.7786C19.5585 17.9975 19.9979 16.9383 19.999 15.8336V9.37272ZM18.3323 15.8336C18.3323 16.4966 18.0689 17.1325 17.6001 17.6013C17.1312 18.0702 16.4954 18.3336 15.8323 18.3336H10.0132C8.83727 18.333 7.67469 18.0847 6.60123 17.6046C5.52778 17.1246 4.56755 16.4238 3.78315 15.5477C2.99497 14.6721 2.4031 13.6381 2.04723 12.515C1.69137 11.392 1.57974 10.2058 1.71982 9.03606C1.94102 7.19101 2.76998 5.47205 4.07602 4.15016C5.38207 2.82828 7.09091 1.97865 8.93315 1.73523C9.29252 1.69018 9.65431 1.66736 10.0165 1.66689C11.9585 1.66159 13.8405 2.34014 15.3323 3.58356C16.2036 4.30768 16.9187 5.20119 17.4344 6.20992C17.9501 7.21865 18.2556 8.32159 18.3323 9.45189V15.8336Z" fill="white"/>
<path d="M6.66732 7.49992H10.0007C10.2217 7.49992 10.4336 7.41212 10.5899 7.25584C10.7462 7.09956 10.834 6.8876 10.834 6.66658C10.834 6.44557 10.7462 6.23361 10.5899 6.07733C10.4336 5.92105 10.2217 5.83325 10.0007 5.83325H6.66732C6.4463 5.83325 6.23434 5.92105 6.07806 6.07733C5.92178 6.23361 5.83398 6.44557 5.83398 6.66658C5.83398 6.8876 5.92178 7.09956 6.07806 7.25584C6.23434 7.41212 6.4463 7.49992 6.66732 7.49992Z" fill="white"/>
<path d="M13.334 9.16675H6.66732C6.4463 9.16675 6.23434 9.25455 6.07806 9.41083C5.92178 9.56711 5.83398 9.77907 5.83398 10.0001C5.83398 10.2211 5.92178 10.4331 6.07806 10.5893C6.23434 10.7456 6.4463 10.8334 6.66732 10.8334H13.334C13.555 10.8334 13.767 10.7456 13.9232 10.5893C14.0795 10.4331 14.1673 10.2211 14.1673 10.0001C14.1673 9.77907 14.0795 9.56711 13.9232 9.41083C13.767 9.25455 13.555 9.16675 13.334 9.16675Z" fill="white"/>
<path d="M13.334 12.5H6.66732C6.4463 12.5 6.23434 12.5878 6.07806 12.7441C5.92178 12.9004 5.83398 13.1123 5.83398 13.3333C5.83398 13.5544 5.92178 13.7663 6.07806 13.9226C6.23434 14.0789 6.4463 14.1667 6.66732 14.1667H13.334C13.555 14.1667 13.767 14.0789 13.9232 13.9226C14.0795 13.7663 14.1673 13.5544 14.1673 13.3333C14.1673 13.1123 14.0795 12.9004 13.9232 12.7441C13.767 12.5878 13.555 12.5 13.334 12.5Z" fill="white"/>
</g>
<defs>
<clipPath id="clip0_3857_75605">
<rect width="20" height="20" fill="white"/>
</clipPath>
</defs>
</svg>
