<svg width="20" height="20" viewBox="0 0 20 20" fill="none" xmlns="http://www.w3.org/2000/svg">
<g clip-path="url(#clip0_3857_77746)">
<path d="M17.3827 12.7759L14.2394 17.905C13.8942 18.4717 13.4243 18.9522 12.8654 19.3099C12.3066 19.6676 11.6735 19.8931 11.0144 19.9692C10.8407 19.9898 10.6659 20.0001 10.491 20C9.59558 19.9988 8.7224 19.7209 7.99102 19.2042C7.23524 19.7704 6.30164 20.0472 5.35937 19.9844C4.4171 19.9216 3.5285 19.5233 2.85457 18.8618C2.18063 18.2002 1.76595 17.3192 1.68566 16.3782C1.60536 15.4373 1.86476 14.4987 2.41686 13.7325L1.32103 12.6384C0.853105 12.1704 0.497122 11.6027 0.279735 10.9776C0.062348 10.3526 -0.0108081 9.68649 0.0657452 9.02918C0.142299 8.37186 0.366577 7.74038 0.721785 7.18203C1.07699 6.62369 1.55392 6.15294 2.11686 5.80505L6.92269 2.83338C8.22453 1.99903 9.7555 1.59451 11.2996 1.67689C12.8436 1.75928 14.3229 2.32441 15.5285 3.29255L16.911 1.91005C16.9879 1.83046 17.0799 1.76697 17.1815 1.7233C17.2832 1.67962 17.3925 1.65663 17.5032 1.65567C17.6138 1.65471 17.7236 1.6758 17.826 1.7177C17.9284 1.7596 18.0214 1.82147 18.0997 1.89972C18.1779 1.97796 18.2398 2.07101 18.2817 2.17342C18.3236 2.27583 18.3447 2.38557 18.3437 2.49622C18.3428 2.60686 18.3198 2.71621 18.2761 2.81788C18.2324 2.91955 18.169 3.01151 18.0894 3.08838L16.7085 4.47005C17.6346 5.63025 18.1935 7.0404 18.3136 8.52004C18.4337 9.99969 18.1096 11.4815 17.3827 12.7759ZM6.72102 18.0392L3.62186 14.9392C3.37967 15.3723 3.28626 15.873 3.35596 16.3643C3.42565 16.8556 3.6546 17.3105 4.00769 17.6592C4.36388 17.9976 4.81692 18.2161 5.30344 18.2842C5.78995 18.3524 6.2856 18.2667 6.72102 18.0392ZM14.9885 5.03921C14.0631 4.10491 12.845 3.51673 11.5379 3.37308C10.2307 3.22943 8.91389 3.53902 7.80769 4.25005L2.99353 7.22171C2.64439 7.43752 2.34861 7.72952 2.12832 8.07584C1.90804 8.42216 1.76896 8.81384 1.7215 9.22153C1.67405 9.62922 1.71945 10.0424 1.8543 10.43C1.98915 10.8177 2.20996 11.1698 2.50019 11.46L8.57519 17.5359C8.86589 17.8269 9.21879 18.0482 9.60735 18.1832C9.99591 18.3182 10.41 18.3633 10.8185 18.3152C11.2271 18.2671 11.6193 18.1269 11.9659 17.9054C12.3124 17.6838 12.6043 17.3865 12.8194 17.0359L15.9485 11.9317C16.5597 10.834 16.7966 9.56703 16.6234 8.32263C16.4502 7.07822 15.8763 5.92413 14.9885 5.03505V5.03921ZM16.0544 20C15.8784 20.0004 15.7068 19.945 15.5642 19.8418C15.4217 19.7386 15.3154 19.5929 15.2608 19.4256C15.2061 19.2584 15.2058 19.0781 15.2598 18.9106C15.3139 18.7431 15.4197 18.5971 15.5619 18.4934C17.021 17.3963 18.0086 15.7856 18.3244 13.9875C18.3465 13.8793 18.3899 13.7766 18.4522 13.6853C18.5144 13.594 18.5941 13.5159 18.6868 13.4558C18.7794 13.3956 18.8831 13.3544 18.9918 13.3347C19.1005 13.3149 19.2121 13.317 19.32 13.3407C19.4279 13.3645 19.53 13.4095 19.6203 13.473C19.7107 13.5366 19.7875 13.6175 19.8463 13.7111C19.9051 13.8046 19.9447 13.9089 19.9628 14.0179C19.981 14.1269 19.9772 14.2384 19.9519 14.3459C19.5435 16.5389 18.328 18.4993 16.5452 19.84C16.4026 19.944 16.2308 20 16.0544 20ZM0.833525 4.78255C0.679611 4.78186 0.528893 4.73856 0.398084 4.65745C0.267275 4.57634 0.161486 4.46058 0.0924455 4.32302C0.0234052 4.18546 -0.00618824 4.03146 0.00694651 3.87811C0.0200813 3.72475 0.075431 3.57803 0.166859 3.45421C1.52601 1.63804 3.52671 0.40865 5.76103 0.0167146C5.97762 -0.0274882 6.2029 0.0161609 6.38731 0.13806C6.57172 0.259958 6.70016 0.450121 6.74436 0.666715C6.78856 0.883308 6.74491 1.10859 6.62301 1.293C6.50111 1.47741 6.31095 1.60585 6.09436 1.65005C4.25934 1.95307 2.61289 2.95474 1.50019 4.44505C1.42301 4.54931 1.32255 4.63412 1.20681 4.69271C1.09107 4.7513 0.963249 4.78206 0.833525 4.78255Z" fill="#374957"/>
</g>
<defs>
<clipPath id="clip0_3857_77746">
<rect width="20" height="20" fill="white"/>
</clipPath>
</defs>
</svg>
