<svg width="20" height="20" viewBox="0 0 20 20" fill="none" xmlns="http://www.w3.org/2000/svg">
<g clip-path="url(#clip0_3857_75609)">
<path d="M19.1673 9.16723H17.5006V7.50057C17.5006 7.27955 17.4128 7.06759 17.2566 6.91131C17.1003 6.75503 16.8883 6.66724 16.6673 6.66724C16.4463 6.66724 16.2343 6.75503 16.0781 6.91131C15.9218 7.06759 15.834 7.27955 15.834 7.50057V9.16723H14.1673C13.9463 9.16723 13.7343 9.25503 13.5781 9.41131C13.4218 9.56759 13.334 9.77955 13.334 10.0006C13.334 10.2216 13.4218 10.4335 13.5781 10.5898C13.7343 10.7461 13.9463 10.8339 14.1673 10.8339H15.834V12.5006C15.834 12.7216 15.9218 12.9335 16.0781 13.0898C16.2343 13.2461 16.4463 13.3339 16.6673 13.3339C16.8883 13.3339 17.1003 13.2461 17.2566 13.0898C17.4128 12.9335 17.5006 12.7216 17.5006 12.5006V10.8339H19.1673C19.3883 10.8339 19.6003 10.7461 19.7566 10.5898C19.9128 10.4335 20.0006 10.2216 20.0006 10.0006C20.0006 9.77955 19.9128 9.56759 19.7566 9.41131C19.6003 9.25503 19.3883 9.16723 19.1673 9.16723Z" fill="white"/>
<path d="M7.5 10C8.48891 10 9.45561 9.70676 10.2779 9.15735C11.1001 8.60794 11.741 7.82705 12.1194 6.91342C12.4978 5.99979 12.5969 4.99446 12.4039 4.02455C12.211 3.05465 11.7348 2.16373 11.0355 1.46447C10.3363 0.765206 9.44536 0.289002 8.47545 0.0960758C7.50555 -0.0968503 6.50021 0.00216643 5.58658 0.380605C4.67295 0.759043 3.89206 1.39991 3.34265 2.22215C2.79324 3.0444 2.5 4.0111 2.5 5C2.50132 6.32568 3.02853 7.59668 3.96593 8.53407C4.90332 9.47147 6.17432 9.99868 7.5 10ZM7.5 1.66667C8.15927 1.66667 8.80374 1.86217 9.3519 2.22844C9.90006 2.59471 10.3273 3.1153 10.5796 3.72439C10.8319 4.33348 10.8979 5.0037 10.7693 5.6503C10.6407 6.29691 10.3232 6.89085 9.85702 7.35703C9.39085 7.8232 8.79691 8.14067 8.1503 8.26929C7.5037 8.3979 6.83348 8.33189 6.22439 8.0796C5.6153 7.82731 5.09471 7.40007 4.72843 6.8519C4.36216 6.30374 4.16667 5.65927 4.16667 5C4.16667 4.11595 4.51786 3.2681 5.14298 2.64298C5.7681 2.01786 6.61595 1.66667 7.5 1.66667Z" fill="white"/>
<path d="M7.5 11.6672C5.51155 11.6694 3.60518 12.4603 2.19914 13.8664C0.79309 15.2724 0.00220571 17.1788 0 19.1672C0 19.3883 0.0877974 19.6002 0.244078 19.7565C0.400358 19.9128 0.61232 20.0006 0.833333 20.0006C1.05435 20.0006 1.26631 19.9128 1.42259 19.7565C1.57887 19.6002 1.66667 19.3883 1.66667 19.1672C1.66667 17.6201 2.28125 16.1364 3.37521 15.0424C4.46917 13.9485 5.9529 13.3339 7.5 13.3339C9.0471 13.3339 10.5308 13.9485 11.6248 15.0424C12.7188 16.1364 13.3333 17.6201 13.3333 19.1672C13.3333 19.3883 13.4211 19.6002 13.5774 19.7565C13.7337 19.9128 13.9457 20.0006 14.1667 20.0006C14.3877 20.0006 14.5996 19.9128 14.7559 19.7565C14.9122 19.6002 15 19.3883 15 19.1672C14.9978 17.1788 14.2069 15.2724 12.8009 13.8664C11.3948 12.4603 9.48845 11.6694 7.5 11.6672Z" fill="white"/>
</g>
<defs>
<clipPath id="clip0_3857_75609">
<rect width="20" height="20" fill="white"/>
</clipPath>
</defs>
</svg>
