<svg width="9" height="9" viewBox="0 0 9 9" fill="none" xmlns="http://www.w3.org/2000/svg">
<path d="M0.187891 7.15191C-0.0609375 7.40074 -0.0660156 7.84253 0.192969 8.10152C0.457031 8.3605 0.898828 8.35542 1.14258 8.11167L4.14883 5.10542L7.15 8.1066C7.40391 8.3605 7.84063 8.3605 8.09961 8.10152C8.35859 7.83745 8.35859 7.40581 8.10469 7.15191L5.10352 4.15074L8.10469 1.14449C8.35859 0.890581 8.36367 0.453862 8.09961 0.194878C7.84063 -0.0641066 7.40391 -0.0641066 7.15 0.1898L4.14883 3.19097L1.14258 0.1898C0.898828 -0.0590285 0.451953 -0.0691847 0.192969 0.194878C-0.0660156 0.453862 -0.0609375 0.900737 0.187891 1.14449L3.18906 4.15074L0.187891 7.15191Z" fill="#2C3C4E"/>
</svg>
